<mxfile host="app.diagrams.net" modified="2023-03-30T14:14:07.267Z" agent="Mozilla/5.0 (Windows NT 10.0; Win64; x64) AppleWebKit/537.36 (KHTML, like Gecko) Chrome/111.0.0.0 Safari/537.36" etag="v5ILqODhUzwYTArzyL0L" version="21.1.1" type="github">
  <diagram name="Page-1" id="82e54ff1-d628-8f03-85c4-9753963a91cd">
    <mxGraphModel dx="4073" dy="1787" grid="1" gridSize="10" guides="1" tooltips="1" connect="1" arrows="1" fold="1" page="1" pageScale="1" pageWidth="1100" pageHeight="850" background="none" math="0" shadow="0">
      <root>
        <mxCell id="0" />
        <mxCell id="1" parent="0" />
        <mxCell id="2YUpntU8kkvu3Xh7ZQcj-74" value="&lt;span style=&quot;font-size: 16px;&quot;&gt;&amp;nbsp; &amp;nbsp; &amp;nbsp;&lt;span style=&quot;white-space: pre;&quot;&gt; &lt;/span&gt;&lt;span style=&quot;white-space: pre;&quot;&gt; &lt;/span&gt;&lt;span style=&quot;white-space: pre;&quot;&gt; &lt;/span&gt;&lt;span style=&quot;white-space: pre;&quot;&gt; &lt;/span&gt;&lt;span style=&quot;white-space: pre;&quot;&gt; &lt;/span&gt;&lt;span style=&quot;white-space: pre;&quot;&gt; &lt;/span&gt;&lt;span style=&quot;white-space: pre;&quot;&gt; &lt;/span&gt;&lt;span style=&quot;white-space: pre;&quot;&gt; &lt;/span&gt;&lt;span style=&quot;white-space: pre;&quot;&gt; &lt;/span&gt;&lt;span style=&quot;white-space: pre;&quot;&gt; &lt;/span&gt;&lt;span style=&quot;white-space: pre;&quot;&gt; &lt;/span&gt;&lt;span style=&quot;white-space: pre;&quot;&gt; &lt;/span&gt;&lt;span style=&quot;white-space: pre;&quot;&gt; &lt;/span&gt;&lt;span style=&quot;white-space: pre;&quot;&gt; &lt;/span&gt;自适应产品部--后端&lt;/span&gt;" style="swimlane;html=1;startSize=20;horizontal=1;containerType=tree;glass=0;align=left;" vertex="1" parent="1">
          <mxGeometry x="-520" y="40" width="1060" height="770" as="geometry">
            <mxRectangle x="-520" y="40" width="100" height="30" as="alternateBounds" />
          </mxGeometry>
        </mxCell>
        <mxCell id="2YUpntU8kkvu3Xh7ZQcj-75" value="" style="endArrow=blockThin;endFill=1;fontSize=11;edgeStyle=elbowEdgeStyle;elbow=vertical;rounded=0;exitX=0;exitY=0.5;exitDx=0;exitDy=0;" edge="1" parent="2YUpntU8kkvu3Xh7ZQcj-74" source="2YUpntU8kkvu3Xh7ZQcj-87" target="2YUpntU8kkvu3Xh7ZQcj-76">
          <mxGeometry relative="1" as="geometry">
            <mxPoint x="270" y="90" as="sourcePoint" />
            <Array as="points">
              <mxPoint x="270" y="85" />
            </Array>
          </mxGeometry>
        </mxCell>
        <UserObject label="吴阳&lt;br&gt;" placeholders="1" id="2YUpntU8kkvu3Xh7ZQcj-76">
          <mxCell style="label;image=https://cdn3.iconfinder.com/data/icons/user-avatars-1/512/users-10-3-128.png;whiteSpace=wrap;html=1;rounded=0;glass=0;treeFolding=1;treeMoving=1;" vertex="1" parent="2YUpntU8kkvu3Xh7ZQcj-74">
            <mxGeometry x="184" y="180" width="180" height="80" as="geometry" />
          </mxCell>
        </UserObject>
        <mxCell id="2YUpntU8kkvu3Xh7ZQcj-77" value="" style="endArrow=blockThin;endFill=1;fontSize=11;edgeStyle=elbowEdgeStyle;elbow=vertical;rounded=0;" edge="1" parent="2YUpntU8kkvu3Xh7ZQcj-74" source="2YUpntU8kkvu3Xh7ZQcj-87" target="2YUpntU8kkvu3Xh7ZQcj-78">
          <mxGeometry relative="1" as="geometry" />
        </mxCell>
        <UserObject label="韩湘" placeholders="1" id="2YUpntU8kkvu3Xh7ZQcj-78">
          <mxCell style="label;image=https://cdn3.iconfinder.com/data/icons/user-avatars-1/512/users-9-2-128.png;whiteSpace=wrap;html=1;rounded=0;glass=0;treeFolding=1;treeMoving=1;" vertex="1" parent="2YUpntU8kkvu3Xh7ZQcj-74">
            <mxGeometry x="384" y="180" width="180" height="80" as="geometry" />
          </mxCell>
        </UserObject>
        <mxCell id="2YUpntU8kkvu3Xh7ZQcj-79" value="" style="endArrow=blockThin;endFill=1;fontSize=11;edgeStyle=elbowEdgeStyle;elbow=vertical;rounded=0;" edge="1" parent="2YUpntU8kkvu3Xh7ZQcj-74" source="2YUpntU8kkvu3Xh7ZQcj-76" target="2YUpntU8kkvu3Xh7ZQcj-80">
          <mxGeometry relative="1" as="geometry">
            <mxPoint x="300" y="160" as="sourcePoint" />
          </mxGeometry>
        </mxCell>
        <UserObject label="CBB Agent 资产、CBB logminer、安装部署、CI/CD集成、代码规范、Nat-VNC、策略模板、LDAP" placeholders="1" id="2YUpntU8kkvu3Xh7ZQcj-80">
          <mxCell style="whiteSpace=wrap;html=1;rounded=0;glass=0;treeFolding=1;treeMoving=1;align=left;verticalAlign=top;" vertex="1" collapsed="1" parent="2YUpntU8kkvu3Xh7ZQcj-74">
            <mxGeometry x="189" y="290" width="170" height="140" as="geometry" />
          </mxCell>
        </UserObject>
        <mxCell id="2YUpntU8kkvu3Xh7ZQcj-81" style="edgeStyle=orthogonalEdgeStyle;rounded=0;orthogonalLoop=1;jettySize=auto;html=1;entryX=0;entryY=0.5;entryDx=0;entryDy=0;fontFamily=Helvetica;fontSize=12;fontColor=default;startSize=20;" edge="1" parent="2YUpntU8kkvu3Xh7ZQcj-74" source="2YUpntU8kkvu3Xh7ZQcj-87" target="2YUpntU8kkvu3Xh7ZQcj-96">
          <mxGeometry relative="1" as="geometry" />
        </mxCell>
        <mxCell id="2YUpntU8kkvu3Xh7ZQcj-82" style="edgeStyle=orthogonalEdgeStyle;rounded=0;orthogonalLoop=1;jettySize=auto;html=1;entryX=1;entryY=0.5;entryDx=0;entryDy=0;fontFamily=Helvetica;fontSize=12;fontColor=default;startSize=20;" edge="1" parent="2YUpntU8kkvu3Xh7ZQcj-74" source="2YUpntU8kkvu3Xh7ZQcj-87" target="2YUpntU8kkvu3Xh7ZQcj-102">
          <mxGeometry relative="1" as="geometry" />
        </mxCell>
        <mxCell id="2YUpntU8kkvu3Xh7ZQcj-83" style="edgeStyle=orthogonalEdgeStyle;rounded=0;orthogonalLoop=1;jettySize=auto;html=1;entryX=1;entryY=0.5;entryDx=0;entryDy=0;fontFamily=Helvetica;fontSize=12;fontColor=default;startSize=20;" edge="1" parent="2YUpntU8kkvu3Xh7ZQcj-74" source="2YUpntU8kkvu3Xh7ZQcj-87" target="2YUpntU8kkvu3Xh7ZQcj-94">
          <mxGeometry relative="1" as="geometry" />
        </mxCell>
        <mxCell id="2YUpntU8kkvu3Xh7ZQcj-84" style="edgeStyle=orthogonalEdgeStyle;rounded=0;orthogonalLoop=1;jettySize=auto;html=1;fontFamily=Helvetica;fontSize=12;fontColor=default;startSize=20;exitX=0.5;exitY=1;exitDx=0;exitDy=0;" edge="1" parent="2YUpntU8kkvu3Xh7ZQcj-74" source="2YUpntU8kkvu3Xh7ZQcj-87" target="2YUpntU8kkvu3Xh7ZQcj-90">
          <mxGeometry relative="1" as="geometry">
            <mxPoint x="580" y="100" as="sourcePoint" />
            <Array as="points">
              <mxPoint x="580" y="140" />
              <mxPoint x="680" y="140" />
            </Array>
          </mxGeometry>
        </mxCell>
        <mxCell id="2YUpntU8kkvu3Xh7ZQcj-85" style="edgeStyle=orthogonalEdgeStyle;rounded=0;orthogonalLoop=1;jettySize=auto;html=1;entryX=1;entryY=0.5;entryDx=0;entryDy=0;fontFamily=Helvetica;fontSize=12;fontColor=default;startSize=20;" edge="1" parent="2YUpntU8kkvu3Xh7ZQcj-74" source="2YUpntU8kkvu3Xh7ZQcj-87" target="2YUpntU8kkvu3Xh7ZQcj-100">
          <mxGeometry relative="1" as="geometry">
            <Array as="points">
              <mxPoint x="780" y="85" />
              <mxPoint x="780" y="500" />
            </Array>
          </mxGeometry>
        </mxCell>
        <mxCell id="2YUpntU8kkvu3Xh7ZQcj-86" style="edgeStyle=orthogonalEdgeStyle;rounded=0;orthogonalLoop=1;jettySize=auto;html=1;entryX=1;entryY=0.75;entryDx=0;entryDy=0;fontFamily=Helvetica;fontSize=12;fontColor=default;startSize=20;exitX=1;exitY=0.5;exitDx=0;exitDy=0;" edge="1" parent="2YUpntU8kkvu3Xh7ZQcj-74" source="2YUpntU8kkvu3Xh7ZQcj-87" target="2YUpntU8kkvu3Xh7ZQcj-98">
          <mxGeometry relative="1" as="geometry">
            <Array as="points">
              <mxPoint x="580" y="85" />
              <mxPoint x="580" y="520" />
            </Array>
          </mxGeometry>
        </mxCell>
        <UserObject label="何涛江" name="何涛江" placeholders="1" id="2YUpntU8kkvu3Xh7ZQcj-87">
          <mxCell style="label;image=https://cdn3.iconfinder.com/data/icons/user-avatars-1/512/users-8-2-256.png;whiteSpace=wrap;html=1;rounded=0;glass=0;treeMoving=1;treeFolding=1;" vertex="1" parent="2YUpntU8kkvu3Xh7ZQcj-74">
            <mxGeometry x="490" y="30" width="180" height="70" as="geometry" />
          </mxCell>
        </UserObject>
        <mxCell id="2YUpntU8kkvu3Xh7ZQcj-88" value="" style="endArrow=blockThin;endFill=1;fontSize=11;edgeStyle=elbowEdgeStyle;elbow=vertical;rounded=0;" edge="1" parent="2YUpntU8kkvu3Xh7ZQcj-74" source="2YUpntU8kkvu3Xh7ZQcj-78" target="2YUpntU8kkvu3Xh7ZQcj-89">
          <mxGeometry relative="1" as="geometry">
            <mxPoint x="190" y="160" as="sourcePoint" />
          </mxGeometry>
        </mxCell>
        <UserObject label="终端管理、防火墙对接、高级部署、CBB Agent 任务、service_probe、终端任务" placeholders="1" id="2YUpntU8kkvu3Xh7ZQcj-89">
          <mxCell style="whiteSpace=wrap;html=1;rounded=0;glass=0;treeFolding=1;treeMoving=1;align=left;verticalAlign=top;" vertex="1" parent="2YUpntU8kkvu3Xh7ZQcj-74">
            <mxGeometry x="384" y="290" width="180" height="140" as="geometry" />
          </mxCell>
        </UserObject>
        <UserObject label="谢崇彬" placeholders="1" id="2YUpntU8kkvu3Xh7ZQcj-90">
          <mxCell style="label;image=https://cdn3.iconfinder.com/data/icons/user-avatars-1/512/users-11-2-512.png;whiteSpace=wrap;html=1;rounded=0;glass=0;treeFolding=1;treeMoving=1;" vertex="1" parent="2YUpntU8kkvu3Xh7ZQcj-74">
            <mxGeometry x="590" y="180" width="180" height="80" as="geometry" />
          </mxCell>
        </UserObject>
        <mxCell id="2YUpntU8kkvu3Xh7ZQcj-91" value="" style="edgeStyle=orthogonalEdgeStyle;rounded=0;orthogonalLoop=1;jettySize=auto;html=1;" edge="1" parent="2YUpntU8kkvu3Xh7ZQcj-74" source="2YUpntU8kkvu3Xh7ZQcj-90" target="2YUpntU8kkvu3Xh7ZQcj-92">
          <mxGeometry relative="1" as="geometry" />
        </mxCell>
        <UserObject label="高级部署、系统日志、终端发现、&#xa;OCR、EDR提测" placeholders="1" id="2YUpntU8kkvu3Xh7ZQcj-92">
          <mxCell style="align=left;fontStyle=0;verticalAlign=top;" vertex="1" collapsed="1" parent="2YUpntU8kkvu3Xh7ZQcj-74">
            <mxGeometry x="587" y="290" width="186" height="140" as="geometry" />
          </mxCell>
        </UserObject>
        <mxCell id="2YUpntU8kkvu3Xh7ZQcj-93" style="edgeStyle=orthogonalEdgeStyle;rounded=0;orthogonalLoop=1;jettySize=auto;html=1;exitX=0.5;exitY=1;exitDx=0;exitDy=0;entryX=0.5;entryY=0;entryDx=0;entryDy=0;fontFamily=Helvetica;fontSize=12;fontColor=default;startSize=20;" edge="1" parent="2YUpntU8kkvu3Xh7ZQcj-74" source="2YUpntU8kkvu3Xh7ZQcj-94" target="2YUpntU8kkvu3Xh7ZQcj-103">
          <mxGeometry relative="1" as="geometry" />
        </mxCell>
        <UserObject label="刘鑫" placeholders="1" id="2YUpntU8kkvu3Xh7ZQcj-94">
          <mxCell style="label;image=https://cdn3.iconfinder.com/data/icons/user-avatars-1/512/users-15-512.png;whiteSpace=wrap;html=1;rounded=0;glass=0;treeFolding=1;treeMoving=1;" vertex="1" parent="2YUpntU8kkvu3Xh7ZQcj-74">
            <mxGeometry x="790" y="180" width="180" height="80" as="geometry" />
          </mxCell>
        </UserObject>
        <mxCell id="2YUpntU8kkvu3Xh7ZQcj-95" style="edgeStyle=orthogonalEdgeStyle;rounded=0;orthogonalLoop=1;jettySize=auto;html=1;entryX=0.5;entryY=0;entryDx=0;entryDy=0;fontFamily=Helvetica;fontSize=12;fontColor=default;startSize=20;" edge="1" parent="2YUpntU8kkvu3Xh7ZQcj-74" source="2YUpntU8kkvu3Xh7ZQcj-96" target="2YUpntU8kkvu3Xh7ZQcj-104">
          <mxGeometry relative="1" as="geometry" />
        </mxCell>
        <UserObject label="曹迅" placeholders="1" id="2YUpntU8kkvu3Xh7ZQcj-96">
          <mxCell style="label;image=https://cdn3.iconfinder.com/data/icons/user-avatars-1/512/users-6-2-512.png;whiteSpace=wrap;html=1;rounded=0;glass=0;treeFolding=1;treeMoving=1;" vertex="1" parent="2YUpntU8kkvu3Xh7ZQcj-74">
            <mxGeometry x="184" y="460" width="180" height="80" as="geometry" />
          </mxCell>
        </UserObject>
        <mxCell id="2YUpntU8kkvu3Xh7ZQcj-97" style="edgeStyle=orthogonalEdgeStyle;rounded=0;orthogonalLoop=1;jettySize=auto;html=1;entryX=0.5;entryY=0;entryDx=0;entryDy=0;fontFamily=Helvetica;fontSize=12;fontColor=default;startSize=20;" edge="1" parent="2YUpntU8kkvu3Xh7ZQcj-74" source="2YUpntU8kkvu3Xh7ZQcj-98" target="2YUpntU8kkvu3Xh7ZQcj-105">
          <mxGeometry relative="1" as="geometry" />
        </mxCell>
        <UserObject label="丁旭" placeholders="1" id="2YUpntU8kkvu3Xh7ZQcj-98">
          <mxCell style="label;image=https://cdn3.iconfinder.com/data/icons/user-avatars-1/512/users-2-512.png;whiteSpace=wrap;html=1;rounded=0;glass=0;treeFolding=1;treeMoving=1;" vertex="1" parent="2YUpntU8kkvu3Xh7ZQcj-74">
            <mxGeometry x="384" y="460" width="180" height="80" as="geometry" />
          </mxCell>
        </UserObject>
        <mxCell id="2YUpntU8kkvu3Xh7ZQcj-99" style="edgeStyle=orthogonalEdgeStyle;rounded=0;orthogonalLoop=1;jettySize=auto;html=1;entryX=0.5;entryY=0;entryDx=0;entryDy=0;fontFamily=Helvetica;fontSize=12;fontColor=default;startSize=20;" edge="1" parent="2YUpntU8kkvu3Xh7ZQcj-74" source="2YUpntU8kkvu3Xh7ZQcj-100" target="2YUpntU8kkvu3Xh7ZQcj-106">
          <mxGeometry relative="1" as="geometry" />
        </mxCell>
        <UserObject label="唐川成" placeholders="1" id="2YUpntU8kkvu3Xh7ZQcj-100">
          <mxCell style="label;image=https://cdn3.iconfinder.com/data/icons/user-avatars-1/512/users-7-512.png;whiteSpace=wrap;html=1;rounded=0;glass=0;treeFolding=1;treeMoving=1;" vertex="1" parent="2YUpntU8kkvu3Xh7ZQcj-74">
            <mxGeometry x="584" y="460" width="180" height="80" as="geometry" />
          </mxCell>
        </UserObject>
        <mxCell id="2YUpntU8kkvu3Xh7ZQcj-101" style="edgeStyle=orthogonalEdgeStyle;rounded=0;orthogonalLoop=1;jettySize=auto;html=1;entryX=0.5;entryY=0;entryDx=0;entryDy=0;fontFamily=Helvetica;fontSize=12;fontColor=default;startSize=20;" edge="1" parent="2YUpntU8kkvu3Xh7ZQcj-74" source="2YUpntU8kkvu3Xh7ZQcj-102" target="2YUpntU8kkvu3Xh7ZQcj-107">
          <mxGeometry relative="1" as="geometry" />
        </mxCell>
        <UserObject label="王鹏" placeholders="1" id="2YUpntU8kkvu3Xh7ZQcj-102">
          <mxCell style="label;image=https://cdn3.iconfinder.com/data/icons/user-avatars-1/512/users-4-512.png;whiteSpace=wrap;html=1;rounded=0;glass=0;treeFolding=1;treeMoving=1;" vertex="1" parent="2YUpntU8kkvu3Xh7ZQcj-74">
            <mxGeometry x="790" y="455" width="180" height="80" as="geometry" />
          </mxCell>
        </UserObject>
        <UserObject label="策略、资产、风险发现、威胁监测&#xa;等模块" placeholders="1" id="2YUpntU8kkvu3Xh7ZQcj-103">
          <mxCell style="verticalAlign=top;align=left;" vertex="1" collapsed="1" parent="2YUpntU8kkvu3Xh7ZQcj-74">
            <mxGeometry x="790" y="290" width="186" height="140" as="geometry" />
          </mxCell>
        </UserObject>
        <UserObject label="统计分析、报表、审计、升级、&#xa;CBB Agent" placeholders="1" id="2YUpntU8kkvu3Xh7ZQcj-104">
          <mxCell style="align=left;verticalAlign=top;" vertex="1" collapsed="1" parent="2YUpntU8kkvu3Xh7ZQcj-74">
            <mxGeometry x="181" y="570" width="186" height="140" as="geometry" />
          </mxCell>
        </UserObject>
        <UserObject label="审计、终端日志、同步工具、&#xa;日志外发、特征库、benthos、" placeholders="1" id="2YUpntU8kkvu3Xh7ZQcj-105">
          <mxCell style="align=left;verticalAlign=top;" vertex="1" collapsed="1" parent="2YUpntU8kkvu3Xh7ZQcj-74">
            <mxGeometry x="381" y="570" width="186" height="140" as="geometry" />
          </mxCell>
        </UserObject>
        <UserObject label="BD 系统、样本上传、&#xa;查询优化、病毒引擎扫描" placeholders="1" id="2YUpntU8kkvu3Xh7ZQcj-106">
          <mxCell style="align=left;verticalAlign=top;" vertex="1" collapsed="1" parent="2YUpntU8kkvu3Xh7ZQcj-74">
            <mxGeometry x="581" y="570" width="186" height="140" as="geometry" />
          </mxCell>
        </UserObject>
        <UserObject label="BD系统、yara插件扫描、&#xa;样本解压缩、&#xa;安全基线" placeholders="1" id="2YUpntU8kkvu3Xh7ZQcj-107">
          <mxCell style="align=left;verticalAlign=top;" vertex="1" collapsed="1" parent="2YUpntU8kkvu3Xh7ZQcj-74">
            <mxGeometry x="787" y="570" width="186" height="140" as="geometry" />
          </mxCell>
        </UserObject>
        <mxCell id="2YUpntU8kkvu3Xh7ZQcj-108" value="自适应产品部--前端" style="swimlane;html=1;startSize=20;horizontal=1;containerType=tree;glass=0;fontSize=16;" vertex="1" parent="1">
          <mxGeometry x="-520" y="850" width="1060" height="450" as="geometry">
            <mxRectangle x="-520" y="850" width="180" height="30" as="alternateBounds" />
          </mxGeometry>
        </mxCell>
        <UserObject label="何涛江" placeholders="1" id="2YUpntU8kkvu3Xh7ZQcj-109">
          <mxCell style="label;image=https://cdn3.iconfinder.com/data/icons/user-avatars-1/512/users-8-2-256.png;whiteSpace=wrap;html=1;rounded=0;glass=0;treeMoving=1;treeFolding=1;" vertex="1" parent="2YUpntU8kkvu3Xh7ZQcj-108">
            <mxGeometry x="440" y="40" width="180" height="70" as="geometry" />
          </mxCell>
        </UserObject>
        <mxCell id="2YUpntU8kkvu3Xh7ZQcj-110" value="" style="endArrow=blockThin;endFill=1;fontSize=11;edgeStyle=elbowEdgeStyle;elbow=vertical;rounded=0;" edge="1" parent="2YUpntU8kkvu3Xh7ZQcj-108" source="2YUpntU8kkvu3Xh7ZQcj-109" target="2YUpntU8kkvu3Xh7ZQcj-112">
          <mxGeometry relative="1" as="geometry" />
        </mxCell>
        <mxCell id="2YUpntU8kkvu3Xh7ZQcj-111" style="edgeStyle=orthogonalEdgeStyle;rounded=0;orthogonalLoop=1;jettySize=auto;html=1;entryX=0.5;entryY=0;entryDx=0;entryDy=0;fontFamily=Helvetica;fontSize=12;fontColor=default;startSize=20;" edge="1" parent="2YUpntU8kkvu3Xh7ZQcj-108" source="2YUpntU8kkvu3Xh7ZQcj-112" target="2YUpntU8kkvu3Xh7ZQcj-119">
          <mxGeometry relative="1" as="geometry" />
        </mxCell>
        <UserObject label="李昌威" placeholders="1" id="2YUpntU8kkvu3Xh7ZQcj-112">
          <mxCell style="label;image=https://cdn3.iconfinder.com/data/icons/user-avatars-1/512/users-10-3-128.png;whiteSpace=wrap;html=1;rounded=0;glass=0;treeFolding=1;treeMoving=1;" vertex="1" parent="2YUpntU8kkvu3Xh7ZQcj-108">
            <mxGeometry x="220" y="170" width="180" height="80" as="geometry" />
          </mxCell>
        </UserObject>
        <mxCell id="2YUpntU8kkvu3Xh7ZQcj-113" value="" style="endArrow=blockThin;endFill=1;fontSize=11;edgeStyle=elbowEdgeStyle;elbow=vertical;rounded=0;" edge="1" parent="2YUpntU8kkvu3Xh7ZQcj-108" source="2YUpntU8kkvu3Xh7ZQcj-109" target="2YUpntU8kkvu3Xh7ZQcj-115">
          <mxGeometry relative="1" as="geometry" />
        </mxCell>
        <mxCell id="2YUpntU8kkvu3Xh7ZQcj-114" style="edgeStyle=orthogonalEdgeStyle;rounded=0;orthogonalLoop=1;jettySize=auto;html=1;fontFamily=Helvetica;fontSize=12;fontColor=default;startSize=20;" edge="1" parent="2YUpntU8kkvu3Xh7ZQcj-108" source="2YUpntU8kkvu3Xh7ZQcj-115" target="2YUpntU8kkvu3Xh7ZQcj-120">
          <mxGeometry relative="1" as="geometry" />
        </mxCell>
        <UserObject label="吴国庆" placeholders="1" id="2YUpntU8kkvu3Xh7ZQcj-115">
          <mxCell style="label;image=https://cdn3.iconfinder.com/data/icons/user-avatars-1/512/users-9-2-128.png;whiteSpace=wrap;html=1;rounded=0;glass=0;treeFolding=1;treeMoving=1;" vertex="1" parent="2YUpntU8kkvu3Xh7ZQcj-108">
            <mxGeometry x="440" y="170" width="180" height="80" as="geometry" />
          </mxCell>
        </UserObject>
        <mxCell id="2YUpntU8kkvu3Xh7ZQcj-116" value="" style="endArrow=blockThin;endFill=1;fontSize=11;edgeStyle=elbowEdgeStyle;elbow=vertical;rounded=0;" edge="1" parent="2YUpntU8kkvu3Xh7ZQcj-108" source="2YUpntU8kkvu3Xh7ZQcj-109" target="2YUpntU8kkvu3Xh7ZQcj-118">
          <mxGeometry relative="1" as="geometry" />
        </mxCell>
        <mxCell id="2YUpntU8kkvu3Xh7ZQcj-117" style="edgeStyle=orthogonalEdgeStyle;rounded=0;orthogonalLoop=1;jettySize=auto;html=1;fontFamily=Helvetica;fontSize=12;fontColor=default;startSize=20;" edge="1" parent="2YUpntU8kkvu3Xh7ZQcj-108" source="2YUpntU8kkvu3Xh7ZQcj-118" target="2YUpntU8kkvu3Xh7ZQcj-121">
          <mxGeometry relative="1" as="geometry" />
        </mxCell>
        <UserObject label="邹振麟" placeholders="1" id="2YUpntU8kkvu3Xh7ZQcj-118">
          <mxCell style="label;image=https://cdn3.iconfinder.com/data/icons/user-avatars-1/512//users-3-128.png;whiteSpace=wrap;html=1;rounded=0;glass=0;" vertex="1" parent="2YUpntU8kkvu3Xh7ZQcj-108">
            <mxGeometry x="670" y="170" width="180" height="80" as="geometry" />
          </mxCell>
        </UserObject>
        <UserObject label="前端负责人、审计、报表、首页" placeholders="1" id="2YUpntU8kkvu3Xh7ZQcj-119">
          <mxCell style="align=left;verticalAlign=top;" vertex="1" collapsed="1" parent="2YUpntU8kkvu3Xh7ZQcj-108">
            <mxGeometry x="217" y="290" width="186" height="140" as="geometry" />
          </mxCell>
        </UserObject>
        <UserObject label="任务、升级、策略" placeholders="1" id="2YUpntU8kkvu3Xh7ZQcj-120">
          <mxCell style="align=left;verticalAlign=top;" vertex="1" collapsed="1" parent="2YUpntU8kkvu3Xh7ZQcj-108">
            <mxGeometry x="437" y="290" width="186" height="140" as="geometry" />
          </mxCell>
        </UserObject>
        <UserObject label="终端管理、系统管理、用户管理、&#xa;租户管理" placeholders="1" id="2YUpntU8kkvu3Xh7ZQcj-121">
          <mxCell style="align=left;verticalAlign=top;" vertex="1" collapsed="1" parent="2YUpntU8kkvu3Xh7ZQcj-108">
            <mxGeometry x="667" y="290" width="186" height="140" as="geometry" />
          </mxCell>
        </UserObject>
      </root>
    </mxGraphModel>
  </diagram>
</mxfile>
